<?xml version="1.0" encoding="utf-8"?>
<!-- Generator: Adobe Illustrator 16.0.0, SVG Export Plug-In . SVG Version: 6.00 Build 0)  -->
<!DOCTYPE svg PUBLIC "-//W3C//DTD SVG 1.1//EN" "http://www.w3.org/Graphics/SVG/1.1/DTD/svg11.dtd">
<svg version="1.1" id="Capa_1" xmlns="http://www.w3.org/2000/svg" xmlns:xlink="http://www.w3.org/1999/xlink" x="0px" y="0px"
	 width="14px" height="14px" viewBox="0 0 14 14" enable-background="new 0 0 14 14" xml:space="preserve">
<path fill="#66b2d2" d="M12.969,0.031H1.063c-0.57,0-1.032,0.448-1.032,1.001v11.966C0.031,13.552,0.493,14,1.063,14h11.906
	C13.539,14,14,13.553,14,12.998V1.033C14,0.48,13.538,0.031,12.969,0.031z M4.234,11.551c0,0.178-0.144,0.322-0.322,0.322H2.545
	c-0.177,0-0.321-0.145-0.321-0.322V5.72c0-0.178,0.144-0.321,0.321-0.321h1.367c0.178,0,0.322,0.144,0.322,0.321V11.551
	L4.234,11.551z M3.227,4.653C2.605,4.666,2.061,4.148,2.061,3.486c0-0.641,0.528-1.164,1.174-1.163c0.638,0,1.164,0.527,1.163,1.168
	C4.396,4.162,3.838,4.668,3.227,4.653z M11.73,7.446v4.292c0,0.074-0.059,0.135-0.133,0.135L9.85,11.872
	c-0.072,0-0.132-0.06-0.132-0.134v-3.6c0-0.312-0.126-0.594-0.331-0.798C9.181,7.134,8.893,7.007,8.576,7.01
	C7.957,7.018,7.463,7.531,7.463,8.152v3.586c0,0.072-0.06,0.133-0.133,0.133H5.587c-0.073,0-0.133-0.061-0.133-0.135V5.531
	c0-0.074,0.06-0.133,0.133-0.133h1.705c0.074,0,0.134,0.059,0.134,0.133v0.716c0,0,0.007,0,0.019,0.002
	c0.032-0.06,0.069-0.118,0.108-0.173c0.354-0.511,0.945-0.844,1.614-0.844h0.351C10.74,5.232,11.73,6.224,11.73,7.446L11.73,7.446
	L11.73,7.446z"/>
</svg>
